Coordinates
version=1
nRows=25
nColumns=23
inDegrees=yes
filters=@(data)LP15(trialStruct.Info.ViconCameraFrameRate,data)

Units are S.I. units (second, meters, Newtons, ...)
If the header above contains a line with 'inDegrees', this indicates whether rotational values are in degrees (yes) or radians (no).

endheader
time	sacrum_pitch	sacrum_roll	sacrum_yaw	sacrum_x	sacrum_y	sacrum_z	sacroiliac_r_flx	hip_r_flx	hip_r_add	hip_r_int	knee_r_flx	ankle_r_flx	ankle_r_add	ankle_r_int	sacroiliac_l_flx	hip_l_flx	hip_l_add	hip_l_int	knee_l_flx	ankle_l_flx	ankle_l_add	ankle_l_int	
2.84500000	21.04286431	-2.98896503	13.11358169	-0.02354358	0.05925501	-0.00014201	3.69999987	48.04791796	-24.25819446	-13.52145990	-100.37404981	18.53733578	-4.99999985	0.00000000	3.70000000	16.41341182	-17.66578914	17.50175022	-118.98286841	9.09489088	-4.99999985	0.00000000	
2.85000000	21.04286431	-2.98896503	13.11358169	-0.02354358	0.05925501	-0.00014201	3.69999987	48.04791796	-24.25819446	-13.52145990	-100.37404981	18.53733578	-4.99999985	0.00000000	3.70000000	16.41341182	-17.66578914	17.50175022	-118.98286841	9.09489088	-4.99999985	0.00000000	
2.85500000	21.04286431	-2.98896503	13.11358169	-0.02354358	0.05925501	-0.00014201	3.69999987	48.04791796	-24.25819446	-13.52145990	-100.37404981	18.53733578	-4.99999985	0.00000000	3.70000000	16.41341182	-17.66578914	17.50175022	-118.98286841	9.09489088	-4.99999985	0.00000000	
2.86000000	21.04286431	-2.98896503	13.11358169	-0.02354358	0.05925501	-0.00014201	3.69999987	48.04791796	-24.25819446	-13.52145990	-100.37404981	18.53733578	-4.99999985	0.00000000	3.70000000	16.41341182	-17.66578914	17.50175022	-118.98286841	9.09489088	-4.99999985	0.00000000	
2.86500000	21.04286431	-2.98896503	13.11358169	-0.02354358	0.05925501	-0.00014201	3.69999987	48.04791796	-24.25819446	-13.52145990	-100.37404981	18.53733578	-4.99999985	0.00000000	3.70000000	16.41341182	-17.66578914	17.50175022	-118.98286841	9.09489088	-4.99999985	0.00000000	
2.87000000	21.04286431	-2.98896503	13.11358169	-0.02354358	0.05925501	-0.00014201	3.69999987	48.04791796	-24.25819446	-13.52145990	-100.37404981	18.53733578	-4.99999985	0.00000000	3.70000000	16.41341182	-17.66578914	17.50175022	-118.98286841	9.09489088	-4.99999985	0.00000000	
2.87500000	21.04286431	-2.98896503	13.11358169	-0.02354358	0.05925501	-0.00014201	3.69999987	48.04791796	-24.25819446	-13.52145990	-100.37404981	18.53733578	-4.99999985	0.00000000	3.70000000	16.41341182	-17.66578914	17.50175022	-118.98286841	9.09489088	-4.99999985	0.00000000	
2.88000000	20.85068957	-2.09714498	12.57517104	-0.02174206	0.05898791	0.00060291	3.69999987	48.05004743	-24.51197565	-13.54462171	-102.49258587	19.79930913	-4.99999985	0.00000000	3.70000000	15.49401698	-17.38356709	17.69026838	-118.40508567	6.86484941	-4.99999985	0.00000000	
2.88500000	20.71170285	-1.19604907	12.01675089	-0.01993789	0.05871043	0.00132107	3.69999987	48.03639743	-24.78848954	-13.50288466	-104.69260801	21.11924865	-4.99999985	0.00000000	3.70000000	14.59397429	-17.02378632	17.87419836	-117.94487814	4.46170138	-4.99999985	0.00000000	
2.89000000	20.66100169	-0.28941033	11.43059137	-0.01813812	0.05841949	0.00198533	3.69999987	47.99348648	-25.09623371	-13.34968941	-107.00918290	22.52623289	-4.99999985	0.00000000	3.70000000	13.75954194	-16.53259743	18.05928796	-117.71774057	1.85460457	-4.99999985	0.00000000	
2.89500000	20.70529295	0.60350297	10.81737944	-0.01634640	0.05811961	0.00257484	3.69999987	47.90327324	-25.41826963	-13.06494338	-109.41600349	23.99349133	-4.99999985	0.00000000	3.70000000	13.06944508	-15.90103492	18.26089280	-117.84638107	-0.82611309	-4.99999985	0.00000000	
2.90000000	20.82257121	1.45336055	10.18676705	-0.01456562	0.05782396	0.00307504	3.69999987	47.73733141	-25.71842219	-12.65495855	-111.81880381	25.44529533	-4.99999985	0.00000000	3.70000000	12.62996851	-15.15547040	18.49909926	-118.44836985	-3.30235450	-4.99999985	0.00000000	
2.90500000	20.97817918	2.23638546	9.55400990	-0.01279632	0.05754881	0.00347794	3.69999987	47.46387641	-25.96662933	-12.14359768	-114.10537575	26.80774366	-4.99999985	0.00000000	3.70000000	12.54480749	-14.32715778	18.79554460	-119.61251023	-5.24778663	-4.99999985	0.00000000	
2.91000000	21.13900553	2.94347479	8.93589067	-0.01103578	0.05730876	0.00378198	3.69999987	47.05785839	-26.15246066	-11.56071300	-116.19059080	28.04564320	-4.99999985	0.00000000	3.70000000	12.88851944	-13.43086642	19.17095929	-121.37632541	-6.37043770	-4.99999985	0.00000000	
2.91500000	21.27775547	3.57751795	8.34770231	-0.00927961	0.05711588	0.00399074	3.69999987	46.50437904	-26.27813044	-10.93313404	-118.02339902	29.16015677	-4.99999985	0.00000000	3.70000000	13.69744064	-12.46339574	19.64137265	-123.71243731	-6.43766496	-4.99999985	0.00000000	
2.92000000	21.37469158	4.14551943	7.80104104	-0.00752356	0.05697986	0.00411159	3.69999987	45.79730347	-26.35000883	-10.28350456	-119.57955356	30.16702903	-4.99999985	0.00000000	3.70000000	14.96872897	-11.41458723	20.21403981	-126.52366227	-5.28034710	-4.99999985	0.00000000	
2.92500000	21.42204455	4.65177438	7.30207301	-0.00576421	0.05690683	0.00415442	3.69999987	44.93569907	-26.37779699	-9.63541443	-120.85754810	31.07183552	-4.99999985	0.00000000	3.70000000	16.66396308	-10.28170971	20.88339370	-129.64953440	-2.80845879	-4.99999985	0.00000000	
2.93000000	21.42778847	5.09535648	6.85052085	-0.00399917	0.05689776	0.00413032	3.69999987	43.92030254	-26.37558332	-9.01579906	-121.87573655	31.85534070	-4.99999985	0.00000000	3.70000000	18.72050233	-9.07832543	21.62667670	-132.88564983	0.95943806	-4.99999985	0.00000000	
2.93500000	21.41218776	5.47120130	6.43988539	-0.00222747	0.05694814	0.00404997	3.69999987	42.75415507	-26.35743056	-8.44992347	-122.66549299	32.48042580	-4.99999985	0.00000000	3.70000000	21.07118219	-7.83453204	22.40063621	-136.01113854	5.87646681	-4.99999985	0.00000000	
2.94000000	21.39995244	5.77226728	6.05839180	-0.00045024	0.05704882	0.00392233	3.69999987	41.44620065	-26.32977888	-7.95428795	-123.26335102	32.91285667	-4.99999985	0.00000000	3.70000000	23.66400412	-6.59336291	23.14086434	-138.81788501	11.67201024	-4.99999985	0.00000000	
2.94500000	21.41457896	5.99051642	5.69030396	0.00132948	0.05718683	0.00375391	3.69999987	40.01320780	-26.28958704	-7.53452339	-123.70727009	33.13726943	-4.99999985	0.00000000	3.70000000	26.46905795	-5.41004296	23.76506969	-141.13522441	17.98607305	-4.99999985	0.00000000	
2.95000000	21.47507238	6.11777455	5.31878409	0.00310804	0.05734678	0.00354829	3.69999987	38.47685864	-26.23022461	-7.18662952	-124.03330602	33.16125212	-4.99999985	0.00000000	3.70000000	29.47573717	-4.35133983	24.17989834	-142.84632761	24.40933620	-4.99999985	0.00000000	
2.95500000	21.59545524	6.14960060	4.92978582	0.00488301	0.05751294	0.00330657	3.69999987	36.85565439	-26.14909967	-6.89777559	-124.27012857	33.00934987	-4.99999985	0.00000000	3.70000000	32.68711432	-3.48934008	24.29007800	-143.89353193	30.50309888	-4.99999985	0.00000000	
2.96000000	21.78609420	6.08905598	4.51359469	0.00665440	0.05767103	0.00302893	3.69999987	35.15998102	-26.05002560	-6.64855837	-124.43730649	32.71338201	-4.99999985	0.00000000	3.70000000	36.09606554	-2.89414545	24.01125461	-144.26692302	35.86211489	-4.99999985	0.00000000	
2.96500000	22.05469950	5.94756397	4.06456888	0.00842462	0.05780905	0.00271646	3.69999987	33.39331026	-25.94041992	-6.41708280	-124.54830341	32.30551965	-4.99999985	0.00000000	3.70000000	39.64731511	-2.62512712	23.28474138	-143.98136270	40.22473035	-4.99999985	0.00000000	
